# xmcd CD database file
#
# Track frame offsets:
#	150
#	11551
#	28678
#	37836
#	60346
#	77551
#	95473
#	114335
#	131013
#	152851
#	171225
#	183151
#	196112
#	207177
#	221685
#	230125
#	242180
#	251461
#
# Disc length: 3570 seconds
#
# Revision: 1
# Processed by: cddbd v1.5.2PL0 Copyright (c) Steve Scherf et al.
# Submitted via: CDex 1.50
#
DISCID=e90df012
DTITLE=Lake City Stompers - 40 Jahre
DYEAR=1900
DGENRE=Jazz
TTITLE0=When my sugar walks down the street
TTITLE1=East St.Louis toodle-o
TTITLE2=Crying for the Carolines
TTITLE3=Shout'em aunt Tillie
TTITLE4=Should I reveal
TTITLE5=Yvette
TTITLE6=Rockin' in rhythm
TTITLE7=Lead me on precious Lord
TTITLE8=When Irish eyes are smiling
TTITLE9=Olga
TTITLE10=Road to Munich
TTITLE11=Wilbour
TTITLE12=Lastic
TTITLE13=Sing on 
TTITLE14=Michael row the boat ashore
TTITLE15=Patte de mouche
TTITLE16=When Johnny comes marching home
TTITLE17=All the girls crazy 'bout the way I walk
EXTD=
EXTT0=
EXTT1=
EXTT2=
EXTT3=
EXTT4=
EXTT5=
EXTT6=
EXTT7=
EXTT8=
EXTT9=
EXTT10=
EXTT11=
EXTT12=
EXTT13=
EXTT14=
EXTT15=
EXTT16=
EXTT17=
PLAYORDER=
